HIERARCHY
ROOT Hips
{
	OFFSET 0.000000 0.000000 0.000000
	CHANNELS 6 Xposition Yposition Zposition Xrotation Yrotation Zrotation
	JOINT LeftUpLeg_virtual
	{
		OFFSET 0.000000 0.000000 0.000000
		CHANNELS 3 Xrotation Yrotation Zrotation
		JOINT LeftUpLeg
		{
			OFFSET 13.026900 -6.336304 -1.092800
			CHANNELS 3 Xrotation Yrotation Zrotation
			JOINT LeftLeg
			{
				OFFSET 0.524474 -46.096886 9.782700
				CHANNELS 3 Xrotation Yrotation Zrotation
				JOINT LeftFoot
				{
					OFFSET -0.524474 -53.427422 -12.948200
					CHANNELS 3 Xrotation Yrotation Zrotation
					JOINT LeftToeBase
					{
						OFFSET 0.192200 -14.009700 16.364100
						CHANNELS 3 Xrotation Yrotation Zrotation
						JOINT LeftToe_End
						{
							OFFSET -1.784700 -0.561700 9.474800
							CHANNELS 3 Xrotation Yrotation Zrotation
							End Site
							{
								OFFSET 0 0 0
							}
						}
					}
				}
			}
		}
	}
	JOINT RightUpLeg_virtual
	{
		OFFSET 0.000000 0.000000 0.000000
		CHANNELS 3 Xrotation Yrotation Zrotation
		JOINT RightUpLeg
		{
			OFFSET -12.883000 -6.336304 -1.092800
			CHANNELS 3 Xrotation Yrotation Zrotation
			JOINT RightLeg
			{
				OFFSET -0.524587 -46.096825 9.782800
				CHANNELS 3 Xrotation Yrotation Zrotation
				JOINT RightFoot
				{
					OFFSET 0.524587 -53.427383 -12.948300
					CHANNELS 3 Xrotation Yrotation Zrotation
					JOINT RightToeBase
					{
						OFFSET -0.192200 -14.009700 16.364100
						CHANNELS 3 Xrotation Yrotation Zrotation
						JOINT RightToe_End
						{
							OFFSET 1.784700 -0.561700 9.474800
							CHANNELS 3 Xrotation Yrotation Zrotation
							End Site
							{
								OFFSET 0 0 0
							}
						}
					}
				}
			}
		}
	}
	JOINT Spine_virtual
	{
		OFFSET 0.000000 0.000000 0.000000
		CHANNELS 3 Xrotation Yrotation Zrotation
		JOINT Spine
		{
			OFFSET 0.072000 7.257294 -0.789700
			CHANNELS 3 Xrotation Yrotation Zrotation
			JOINT Spine1
			{
				OFFSET 0.000000 12.508769 -0.658067
				CHANNELS 3 Xrotation Yrotation Zrotation
				JOINT Spine1_split
				{
					OFFSET 0.000000 12.508769 -0.658067
					CHANNELS 3 Xrotation Yrotation Zrotation
					JOINT Spine2
					{
						OFFSET 0.000000 12.508769 -0.658067
						CHANNELS 3 Xrotation Yrotation Zrotation
						JOINT Neck_virtual
						{
							OFFSET 0.000000 0.000000 0.000000
							CHANNELS 3 Xrotation Yrotation Zrotation
							JOINT Neck
							{
								OFFSET 0.000000 14.033295 7.520400
								CHANNELS 3 Xrotation Yrotation Zrotation
								JOINT Head
								{
									OFFSET 0.000000 8.198502 5.703100
									CHANNELS 3 Xrotation Yrotation Zrotation
									JOINT HeadTop_End
									{
										OFFSET 0.000000 17.760803 13.332701
										CHANNELS 3 Xrotation Yrotation Zrotation
										End Site
										{
											OFFSET 0 0 0
										}
									}
								}
							}
						}
						JOINT LeftShoulder_virtual
						{
							OFFSET 0.000000 0.000000 0.000000
							CHANNELS 3 Xrotation Yrotation Zrotation
							JOINT LeftShoulder
							{
								OFFSET 6.292450 5.785301 -0.669000
								CHANNELS 3 Xrotation Yrotation Zrotation
								JOINT LeftShoulder_split
								{
									OFFSET 6.292450 5.785301 -0.669000
									CHANNELS 3 Xrotation Yrotation Zrotation
									JOINT LeftArm
									{
										OFFSET 13.907140 -6.093903 1.965100
										CHANNELS 3 Xrotation Yrotation Zrotation
										JOINT LeftForeArm
										{
											OFFSET 34.140198 0.000000 0.000000
											CHANNELS 3 Xrotation Yrotation Zrotation
											JOINT LeftHand
											{
												OFFSET 40.960209 0.000000 0.000000
												CHANNELS 3 Xrotation Yrotation Zrotation
												End Site
												{
													OFFSET 0 0 0
												}
											}
										}
									}
								}
							}
						}
						JOINT RightShoulder_virtual
						{
							OFFSET 0.000000 0.000000 0.000000
							CHANNELS 3 Xrotation Yrotation Zrotation
							JOINT RightShoulder
							{
								OFFSET -6.292450 5.785301 -0.669000
								CHANNELS 3 Xrotation Yrotation Zrotation
								JOINT RightShoulder_split
								{
									OFFSET -6.292450 5.785301 -0.669000
									CHANNELS 3 Xrotation Yrotation Zrotation
									JOINT RightArm
									{
										OFFSET -13.907140 -6.093903 1.965100
										CHANNELS 3 Xrotation Yrotation Zrotation
										JOINT RightForeArm
										{
											OFFSET -34.140198 0.000000 0.000000
											CHANNELS 3 Xrotation Yrotation Zrotation
											JOINT RightHand
											{
												OFFSET -40.960209 0.000000 0.000000
												CHANNELS 3 Xrotation Yrotation Zrotation
												End Site
												{
													OFFSET 0 0 0
												}
											}
										}
									}
								}
							}
						}
					}
				}
			}
		}
	}
}
MOTION
Frames: 11
Frame Time: 0.03333333
0.515414 90.479279 1.763599 0.000000 0.000000 0.000000 -9.891964 -75.763013 -6.371483 -42.596044 18.717543 51.101040 36.576729 4.464431 -4.351011 7.513412 -5.826521 -25.621971 -2.007102 0.275810 0.352876 0.000000 0.000000 0.000000 -12.638321 -73.489113 -7.789694 -31.409455 -1.103221 -21.932419 54.662649 9.498711 -8.554800 -18.200593 -2.657303 19.528336 4.162362 0.864690 0.827045 0.000000 0.000000 0.000000 -11.690293 -75.004274 -7.613584 4.573557 -2.209179 -2.960050 3.758367 -0.151858 -3.320045 0.512591 0.889514 0.267819 0.000000 0.000000 0.000000 5.690147 0.098361 -3.016475 -5.595734 21.420703 5.489356 2.113544 19.280787 -8.734666 0.000000 0.000000 0.000000 5.996850 -0.184041 -3.397564 0.148819 -4.564809 -18.083541 -2.084525 -2.279685 -1.236038 -44.045721 -23.341488 -5.462694 -6.367075 -33.178501 -4.443694 0.000000 0.000000 0.000000 5.039302 -0.086979 -2.884973 1.994762 15.876027 5.939156 8.338729 4.116149 2.303632 18.607228 74.820030 -6.817466 85.002517 86.726546 -95.968597 0.000000 0.000000 0.000000 
0.443939 90.958626 1.419273 0.000000 0.000000 0.000000 -10.873840 -75.368419 -7.588981 -41.744214 18.232681 51.246588 36.850329 4.112108 -4.251981 8.077187 -5.612760 -25.400825 -1.822826 0.253000 0.483908 0.000000 0.000000 0.000000 -14.038443 -73.535606 -9.224379 -31.447274 -1.050330 -21.702605 53.319629 9.383269 -8.165380 -17.722031 -2.768773 19.700333 4.043663 0.923850 0.722702 0.000000 0.000000 0.000000 -11.885200 -75.177440 -8.079094 4.215782 -2.026680 -2.690899 3.566866 -0.129467 -3.284744 -0.004665 0.864717 0.290236 0.000000 0.000000 0.000000 5.494048 -0.019763 -2.953347 -5.310192 21.519536 5.532355 2.600840 19.818649 -9.210370 0.000000 0.000000 0.000000 5.685122 -0.179496 -3.292783 0.060761 -4.600355 -18.297727 -2.158636 -1.005309 -1.978912 -44.222258 -23.432692 -6.099122 -6.078504 -34.789350 -4.154930 0.000000 0.000000 0.000000 4.924881 -0.091563 -2.902253 2.005874 15.961148 5.742398 8.895526 2.155163 2.121502 17.339031 74.388048 -4.806212 71.558649 86.980465 -82.454590 0.000000 0.000000 0.000000 
0.488219 92.034470 0.946846 0.000000 0.000000 0.000000 -13.688000 -75.455149 -10.698776 -39.785271 17.520156 51.007026 35.987720 4.128638 -4.002733 8.879245 -4.973094 -24.330080 -2.230901 0.132599 0.633069 0.000000 0.000000 0.000000 -16.160694 -74.122797 -11.722539 -31.456378 -1.332331 -21.653185 51.301387 9.559796 -7.711623 -16.187294 -1.956217 20.204888 3.890527 0.974589 0.576373 0.000000 0.000000 0.000000 -14.230090 -75.740746 -10.799470 3.943298 -1.563437 -2.081770 3.691109 -0.138694 -3.106083 -0.167005 0.204723 0.081199 0.000000 0.000000 0.000000 5.607371 -0.138587 -2.769682 -5.540227 21.763633 5.817078 3.196949 21.311263 -9.826535 0.000000 0.000000 0.000000 5.590406 -0.228704 -3.032274 -0.235580 -4.959951 -18.716018 -2.901995 -0.039688 -2.264906 -42.237822 -22.208102 -7.514800 -6.053096 -36.489835 -4.414833 0.000000 0.000000 0.000000 4.978410 -0.082847 -2.744439 2.026810 15.418478 5.820989 8.097903 1.392901 2.128696 15.004254 71.804112 -0.505669 43.985824 86.338523 -54.469164 0.000000 0.000000 0.000000 
0.549718 93.516907 0.446926 0.000000 0.000000 0.000000 -17.584594 -75.952885 -14.957430 -37.030297 16.749104 50.428485 34.090755 4.513908 -3.750102 9.852337 -4.264259 -22.781544 -2.975081 -0.091755 0.775765 0.000000 0.000000 0.000000 -18.707012 -74.754085 -14.856030 -31.047561 -1.779617 -21.601921 48.933169 9.707927 -7.242967 -14.359590 -0.669340 20.579589 3.908004 1.009741 0.520228 0.000000 0.000000 0.000000 -17.728791 -76.175331 -14.730654 3.838142 -0.928763 -1.269452 4.061382 -0.179597 -2.796486 0.293893 -0.678739 0.261474 0.000000 0.000000 0.000000 5.822773 -0.243891 -2.521540 -6.109126 21.944648 6.280867 3.910233 23.494763 -10.509493 0.000000 0.000000 0.000000 5.750740 -0.322703 -2.706365 -0.663936 -5.844218 -19.427554 -3.610976 0.388496 -2.257628 -37.782571 -20.388921 -9.681696 -6.165350 -39.131230 -5.065327 0.000000 0.000000 0.000000 5.218396 -0.034983 -2.464383 2.053285 14.551528 6.273141 6.389045 1.910301 2.095810 12.810073 67.408346 4.916356 24.288149 84.474441 -33.993650 0.000000 0.000000 0.000000 
0.582992 95.219147 0.185177 0.000000 0.000000 0.000000 -21.196025 -76.473120 -18.956697 -33.754891 16.142087 49.628578 31.519407 5.112855 -3.606228 10.870750 -3.763532 -21.343117 -3.795361 -0.397872 0.997364 0.000000 0.000000 0.000000 -20.050468 -74.779124 -16.851113 -29.890776 -2.176707 -21.404800 46.321930 9.449959 -6.777871 -12.913892 0.335033 20.341521 3.955553 1.021276 0.622481 0.000000 0.000000 0.000000 -21.525959 -76.307871 -18.879049 3.967342 -0.313985 -0.437304 4.508216 -0.273381 -2.385420 0.654975 -1.236917 0.793889 0.000000 0.000000 0.000000 5.951321 -0.364594 -2.243400 -6.704498 22.131328 6.836312 4.755578 25.770384 -11.099092 0.000000 0.000000 0.000000 6.094616 -0.487540 -2.390054 -1.156892 -7.277311 -20.406554 -3.292622 0.340574 -2.123059 -30.611019 -18.844309 -12.104943 -6.161221 -43.509924 -5.748001 0.000000 0.000000 0.000000 5.553795 0.020293 -2.104097 2.003870 13.419085 7.226653 4.286708 3.155043 1.966942 11.489588 61.973817 10.214656 13.402824 81.336188 -21.987726 0.000000 0.000000 0.000000 
0.609212 96.786285 -0.054501 0.000000 0.000000 0.000000 -22.765984 -76.617148 -20.900177 -30.154377 15.690965 48.564899 28.419193 5.929831 -3.637393 11.740814 -3.589758 -20.419091 -4.440647 -0.745774 1.387192 0.000000 0.000000 0.000000 -19.068302 -73.964296 -16.479940 -28.064160 -2.211967 -21.024267 43.636545 8.716010 -6.402350 -11.964119 0.594262 19.686615 3.844353 0.989874 0.859354 0.000000 0.000000 0.000000 -24.190088 -76.067694 -21.702224 4.296172 0.136493 0.228799 4.879234 -0.458589 -1.891833 0.601838 -1.314329 1.064953 0.000000 0.000000 0.000000 5.857318 -0.526661 -1.929275 -6.913710 22.329295 7.354694 5.585336 27.809074 -11.493645 0.000000 0.000000 0.000000 6.517848 -0.733035 -2.096566 -1.598621 -9.078504 -21.337540 -2.969902 -0.078252 -2.018812 -21.693915 -19.232503 -13.976189 -5.815037 -49.978379 -6.094999 0.000000 0.000000 0.000000 5.892473 0.047833 -1.663732 1.841364 12.189519 8.798966 2.163246 3.923486 1.579971 11.092134 56.550589 14.641175 7.550934 76.582355 -14.711025 0.000000 0.000000 0.000000 
0.635998 98.075050 -0.370262 0.000000 0.000000 0.000000 -21.664949 -76.376268 -20.110440 -26.513867 15.372241 47.282565 24.829913 6.876332 -3.804581 12.204632 -3.793113 -20.494645 -4.931342 -1.068753 1.950321 0.000000 0.000000 0.000000 -16.238312 -72.548753 -14.060212 -25.981285 -1.748609 -20.652677 41.017332 7.815553 -6.206768 -11.160092 0.125402 19.266463 3.495884 0.918172 1.118241 0.000000 0.000000 0.000000 -25.043659 -75.576398 -22.520102 4.796225 0.292755 0.616640 5.062920 -0.818029 -1.339646 0.541164 -1.216721 1.521647 0.000000 0.000000 0.000000 5.562577 -0.825665 -1.571388 -6.529304 22.745513 7.711120 6.231111 29.691468 -11.705053 0.000000 0.000000 0.000000 6.872098 -1.114911 -1.783617 -1.937088 -11.078353 -21.746052 -2.940005 -0.405001 -2.731073 -12.620764 -22.625488 -14.135969 -5.084026 -58.338039 -5.737258 0.000000 0.000000 0.000000 6.101852 -0.116317 -1.104517 1.530517 11.031929 10.983419 0.016344 3.688480 1.020232 11.022418 52.047599 18.258218 5.023438 70.498016 -10.411381 0.000000 0.000000 0.000000 
0.777151 99.026382 -0.446503 0.000000 0.000000 0.000000 -18.125237 -75.821008 -16.786802 -23.294668 15.043837 45.873917 21.122847 7.957563 -4.025246 12.306900 -4.174040 -21.725189 -4.897546 -1.287497 2.479531 0.000000 0.000000 0.000000 -12.609052 -71.076902 -10.645664 -24.149548 -0.989305 -20.518862 38.603355 6.916682 -6.177899 -10.091926 -1.027786 19.587646 3.024279 0.813281 1.238925 0.000000 0.000000 0.000000 -24.146991 -75.089624 -21.401891 5.296278 0.063340 0.687125 5.060328 -1.464777 -0.753086 0.448325 -1.389083 1.769847 0.000000 0.000000 0.000000 5.190030 -1.334905 -1.116948 -5.646780 23.633344 7.787161 6.617076 31.517129 -11.841155 0.000000 0.000000 0.000000 6.996384 -1.699835 -1.368159 -2.029320 -12.931834 -21.063409 -2.748365 -0.544093 -3.526370 -5.485672 -29.526727 -11.702995 -3.478864 -67.352263 -4.034435 0.000000 0.000000 0.000000 6.149776 -0.617032 -0.432755 1.140979 10.002524 13.632429 -1.913012 2.674865 0.342522 10.633751 48.837434 21.268676 4.704367 64.250415 -7.972432 0.000000 0.000000 0.000000 
0.891785 99.707619 -0.196735 0.000000 0.000000 0.000000 -12.858469 -75.087944 -11.638404 -21.031980 14.853167 44.639050 17.826806 9.418609 -4.200055 12.158424 -4.735047 -23.675517 -3.973386 -1.325592 2.600002 0.000000 0.000000 0.000000 -9.152392 -69.848021 -7.162091 -22.716379 -0.377889 -20.616339 36.421489 5.924013 -6.228141 -8.632393 -2.667457 20.556971 2.726192 0.686837 1.204736 0.000000 0.000000 0.000000 -21.563648 -74.590283 -18.507525 5.666916 -0.539450 0.564385 4.939437 -2.402913 -0.144968 0.568417 -1.477725 1.696219 0.000000 0.000000 0.000000 4.808851 -2.087079 -0.563060 -4.639529 24.857782 7.610484 6.840827 33.579037 -12.231026 0.000000 0.000000 0.000000 6.915086 -2.531644 -0.814715 -1.672703 -14.386950 -18.720966 -2.089624 -0.313309 -3.407664 -1.852574 -40.028095 -6.909922 -0.107835 -74.838157 -0.100848 0.000000 0.000000 0.000000 6.102476 -1.479679 0.322621 0.774004 9.338633 16.442118 -2.942590 1.484035 -0.592187 9.693099 46.469117 23.885255 5.613966 58.779310 -6.549253 0.000000 0.000000 0.000000 
1.026653 100.266121 0.421288 0.000000 0.000000 0.000000 -7.151835 -74.365843 -5.866131 -20.023473 14.729993 43.825216 15.759277 11.243297 -4.198328 11.926937 -5.621474 -25.813044 -2.531727 -1.191723 2.174403 0.000000 0.000000 0.000000 -6.006146 -68.980314 -3.726352 -21.435514 -0.242979 -20.917753 34.234213 4.790290 -6.222431 -7.161232 -4.382483 21.804740 2.565092 0.554283 1.077865 0.000000 0.000000 0.000000 -17.583900 -74.077308 -14.243279 5.840470 -1.432994 0.409092 4.789684 -3.577131 0.443524 0.960689 -1.359074 1.300655 0.000000 0.000000 0.000000 4.447591 -3.105773 0.044295 -3.985277 26.217102 7.399753 7.320837 35.993673 -13.289774 0.000000 0.000000 0.000000 6.697594 -3.600190 -0.150314 -0.802100 -15.100025 -14.485725 -1.003312 0.333278 -2.041310 -2.668477 -53.723433 -1.803716 4.592650 -79.530135 5.693715 0.000000 0.000000 0.000000 6.075156 -2.667804 1.063999 0.520538 9.046793 19.147783 -3.607519 0.811800 -1.455683 8.344047 44.165475 26.240057 7.365755 54.922200 -5.909414 0.000000 0.000000 0.000000 
1.112468 100.903824 1.456547 0.000000 0.000000 0.000000 -1.844839 -73.714441 -0.278283 -19.961535 14.465490 43.545601 14.887067 13.642990 -3.906713 11.651200 -6.786572 -27.457308 -1.014962 -0.963169 1.209698 0.000000 0.000000 0.000000 -2.930853 -68.668700 -0.308018 -20.040419 -0.705299 -21.403364 31.702128 3.302642 -6.024057 -5.941644 -5.871979 22.886984 2.513917 0.396937 1.011329 0.000000 0.000000 0.000000 -12.280830 -73.610001 -8.793778 5.700065 -2.445922 0.381647 4.638724 -4.864068 0.972395 1.050683 -1.244890 0.429715 0.000000 0.000000 0.000000 4.086014 -4.341052 0.648044 -3.972465 27.430038 7.312032 8.345423 38.513951 -15.269643 0.000000 0.000000 0.000000 6.435675 -4.848078 0.535249 0.569167 -14.764513 -8.369543 -0.158152 1.324521 -0.379982 -12.917638 -69.227936 -3.020626 6.298528 -81.040509 8.838576 0.000000 0.000000 0.000000 6.158939 -4.038402 1.714857 0.459837 9.182387 21.728044 -3.988527 0.949984 -2.176485 6.426614 40.734439 28.152039 9.265330 52.607077 -5.669616 0.000000 0.000000 0.000000 
